<?xml version="1.0" encoding="UTF-8"?>
<svg width="1000" height="600" viewBox="0 0 1000 600" xmlns="http://www.w3.org/2000/svg">
    <!-- Background -->
    <rect width="1000" height="600" fill="#4CAF50"/>
    
    <!-- Abstract Pattern -->
    <path d="M0 0l200 100-200 100 200 100-200 100 200 100-200 100" stroke="rgba(255,255,255,0.1)" fill="none" stroke-width="50"/>
    <path d="M200 0l200 100-200 100 200 100-200 100 200 100-200 100" stroke="rgba(255,255,255,0.1)" fill="none" stroke-width="50"/>
    <path d="M400 0l200 100-200 100 200 100-200 100 200 100-200 100" stroke="rgba(255,255,255,0.1)" fill="none" stroke-width="50"/>
    <path d="M600 0l200 100-200 100 200 100-200 100 200 100-200 100" stroke="rgba(255,255,255,0.1)" fill="none" stroke-width="50"/>
    <path d="M800 0l200 100-200 100 200 100-200 100 200 100-200 100" stroke="rgba(255,255,255,0.1)" fill="none" stroke-width="50"/>
</svg> 